<svg width="97" height="105" viewBox="0 0 97 105" fill="none" xmlns="http://www.w3.org/2000/svg">
<path d="M48.138 35.4492L32.8369 44.2739V61.9232L48.138 70.7478L63.4391 61.9232V44.2739L48.138 35.4492Z" fill="#33CC99"/>
<path d="M95.4429 27.9141V38.5188L86.2773 33.2164L95.4429 27.9141Z" fill="url(#paint0_linear_150_403)"/>
<path d="M94.9878 65.4453V76.05L85.8223 70.7477L94.9878 65.4453Z" fill="url(#paint1_linear_150_403)"/>
<path d="M90.9729 61.9235L81.7695 67.2258V56.6211L90.9729 61.9235Z" fill="url(#paint2_linear_150_403)"/>
<path d="M96.6919 47.2305V57.8352L87.5264 52.5328L96.6919 47.2305Z" fill="url(#paint3_linear_150_403)"/>
<path d="M75.6721 75.9375V86.5043L66.4688 81.202L75.6721 75.9375Z" fill="url(#paint4_linear_150_403)"/>
<path d="M77.1874 68.9668L64.9541 61.9223L77.1874 54.8398V68.9668Z" fill="url(#paint5_linear_150_403)"/>
<path d="M77.1874 70.7477L64.9541 77.7923V63.7031L77.1874 70.7477Z" fill="url(#paint6_linear_150_403)"/>
<path d="M77.1874 53.0981L64.9541 60.1426V46.0156L77.1874 53.0981Z" fill="url(#paint7_linear_150_403)"/>
<path d="M78.1343 93.9274L68.9688 99.1918V88.625L78.1343 93.9274Z" fill="url(#paint8_linear_150_403)"/>
<path d="M63.4388 61.9227L48.1377 53.0981L63.4388 44.2734V61.9227Z" fill="url(#paint9_linear_150_403)"/>
<path d="M61.8856 81.5824L49.6523 88.627V74.5L61.8856 81.5824Z" fill="url(#paint10_linear_150_403)"/>
<path d="M60.3716 98.8883L51.2061 104.191V93.5859L60.3716 98.8883Z" fill="url(#paint11_linear_150_403)"/>
<path d="M93.5112 82.4911L84.3457 87.7934V77.2266L93.5112 82.4911Z" fill="url(#paint12_linear_150_403)"/>
<path d="M90.9729 44.275L81.7695 49.5395V38.9727L90.9729 44.275Z" fill="url(#paint13_linear_150_403)"/>
<path d="M77.1874 37.1914V51.3184L64.9541 44.2738L77.1874 37.1914Z" fill="url(#paint14_linear_150_403)"/>
<path d="M60.3716 84.0039V94.5708L51.2061 89.3063L60.3716 84.0039Z" fill="url(#paint15_linear_150_403)"/>
<path d="M61.8856 79.7989L49.6523 72.7543L61.8856 65.6719V79.7989Z" fill="url(#paint16_linear_150_403)"/>
<path d="M48.1377 53.0977L63.4388 61.9223L48.1377 70.7469V53.0977Z" fill="url(#paint17_linear_150_403)"/>
<path d="M92.602 22.7254L83.4365 28.0278V17.4609L92.602 22.7254Z" fill="url(#paint18_linear_150_403)"/>
<path d="M77.5659 7.2723L68.4004 12.6125V2.00781L77.5659 7.2723Z" fill="url(#paint19_linear_150_403)"/>
<path d="M77.1874 35.4496L64.9541 42.4942V28.3672L77.1874 35.4496Z" fill="url(#paint20_linear_150_403)"/>
<path d="M60.3716 19.4289L51.2061 14.1266L60.3716 8.82422V19.4289Z" fill="url(#paint21_linear_150_403)"/>
<path d="M61.8856 26.3594V40.4864L49.6523 33.4418L61.8856 26.3594Z" fill="url(#paint22_linear_150_403)"/>
<path d="M48.138 35.4492V53.0985L32.8369 44.2739L48.138 35.4492Z" fill="url(#paint23_linear_150_403)"/>
<path d="M46.623 31.6622L34.3896 24.6176L46.623 17.5352V31.6622Z" fill="url(#paint24_linear_150_403)"/>
<path d="M45.0698 10.6047L35.9043 5.30236L45.0698 0V10.6047Z" fill="url(#paint25_linear_150_403)"/>
<path d="M31.3222 42.4942L19.0889 35.4118L31.3222 28.3672V42.4942Z" fill="url(#paint26_linear_150_403)"/>
<path d="M26.3979 8.06641V18.6711L17.2324 13.3688L26.3979 8.06641Z" fill="url(#paint27_linear_150_403)"/>
<path d="M75.6721 30.261L66.4688 24.9586L75.6721 19.6562V30.261Z" fill="url(#paint28_linear_150_403)"/>
<path d="M60.3716 5.30236L51.2061 10.6047V0L60.3716 5.30236Z" fill="url(#paint29_linear_150_403)"/>
<path d="M61.8856 24.6176L49.6523 31.6622V17.5352L61.8856 24.6176Z" fill="url(#paint30_linear_150_403)"/>
<path d="M63.4388 44.2739L48.1377 53.0985V35.4492L63.4388 44.2739Z" fill="url(#paint31_linear_150_403)"/>
<path d="M45.0698 17.1188L35.9043 22.4211V11.8164L45.0698 17.1188Z" fill="url(#paint32_linear_150_403)"/>
<path d="M46.5851 33.4418L34.3896 40.4864V26.3594L46.5851 33.4418Z" fill="url(#paint33_linear_150_403)"/>
<path d="M29.769 24.9586L20.6035 30.2231V19.6562L29.769 24.9586Z" fill="url(#paint34_linear_150_403)"/>
<path d="M10.1126 32.9133L0.90918 27.611L10.1126 22.3086V32.9133Z" fill="url(#paint35_linear_150_403)"/>
<path d="M45.0698 104.191L35.9043 98.8883L45.0698 93.5859V104.191Z" fill="url(#paint36_linear_150_403)"/>
<path d="M48.138 53.0977V70.7469L32.8369 61.9223L48.138 53.0977Z" fill="url(#paint37_linear_150_403)"/>
<path d="M29.769 89.1562V99.761L20.6035 94.4586L29.769 89.1562Z" fill="url(#paint38_linear_150_403)"/>
<path d="M31.3222 61.9223L19.0889 68.9668V54.8398L31.3222 61.9223Z" fill="url(#paint39_linear_150_403)"/>
<path d="M31.3222 44.2738L19.0889 51.3184V37.1914L31.3222 44.2738Z" fill="url(#paint40_linear_150_403)"/>
<path d="M12.8393 79.3477V89.9145L3.67383 84.65L12.8393 79.3477Z" fill="url(#paint41_linear_150_403)"/>
<path d="M14.5061 38.5938V49.1985L5.30273 43.8961L14.5061 38.5938Z" fill="url(#paint42_linear_150_403)"/>
<path d="M9.16551 53.5524L0 58.8168V48.25L9.16551 53.5524Z" fill="url(#paint43_linear_150_403)"/>
<path d="M46.5851 88.627L34.3896 81.5824L46.5851 74.5V88.627Z" fill="url(#paint44_linear_150_403)"/>
<path d="M48.138 53.0981L32.8369 61.9227V44.2734L48.138 53.0981Z" fill="url(#paint45_linear_150_403)"/>
<path d="M45.0698 90.0641L35.9043 95.3664V84.7617L45.0698 90.0641Z" fill="url(#paint46_linear_150_403)"/>
<path d="M46.5851 72.7543L34.3896 79.7989V65.6719L46.5851 72.7543Z" fill="url(#paint47_linear_150_403)"/>
<path d="M29.769 81.202L20.6035 86.5043V75.9375L29.769 81.202Z" fill="url(#paint48_linear_150_403)"/>
<path d="M31.3222 63.7031V77.7923L19.0889 70.7477L31.3222 63.7031Z" fill="url(#paint49_linear_150_403)"/>
<path d="M31.3222 46.0156V60.1426L19.0889 53.0981L31.3222 46.0156Z" fill="url(#paint50_linear_150_403)"/>
<path d="M14.5061 67.2258L5.30273 61.9235L14.5061 56.6211V67.2258Z" fill="url(#paint51_linear_150_403)"/>
<path d="M9.5442 35.4496L0.378694 40.7141L0.34082 30.1094L9.5442 35.4496Z" fill="url(#paint52_linear_150_403)"/>
<path d="M10.1126 71.3922L0.90918 76.6946V66.0898L10.1126 71.3922Z" fill="url(#paint53_linear_150_403)"/>
<defs>
<linearGradient id="paint0_linear_150_403" x1="74.3501" y1="18.8659" x2="110.506" y2="38.0945" gradientUnits="userSpaceOnUse">
<stop stop-color="#99D633"/>
<stop offset="0.5" stop-color="#33CC99"/>
<stop offset="1" stop-color="#273470"/>
</linearGradient>
<linearGradient id="paint1_linear_150_403" x1="62.4944" y1="48.3094" x2="98.6501" y2="67.5313" gradientUnits="userSpaceOnUse">
<stop stop-color="#99D633"/>
<stop offset="0.5" stop-color="#33CC99"/>
<stop offset="1" stop-color="#273470"/>
</linearGradient>
<linearGradient id="paint2_linear_150_403" x1="61.8809" y1="47.1997" x2="98.0372" y2="66.4283" gradientUnits="userSpaceOnUse">
<stop stop-color="#99D633"/>
<stop offset="0.5" stop-color="#33CC99"/>
<stop offset="1" stop-color="#273470"/>
</linearGradient>
<linearGradient id="paint3_linear_150_403" x1="68.8536" y1="33.4059" x2="105.022" y2="52.6339" gradientUnits="userSpaceOnUse">
<stop stop-color="#99D633"/>
<stop offset="0.5" stop-color="#33CC99"/>
<stop offset="1" stop-color="#273470"/>
</linearGradient>
<linearGradient id="paint4_linear_150_403" x1="51.1437" y1="64.4824" x2="87.3815" y2="83.7548" gradientUnits="userSpaceOnUse">
<stop stop-color="#99D633"/>
<stop offset="0.5" stop-color="#33CC99"/>
<stop offset="1" stop-color="#273470"/>
</linearGradient>
<linearGradient id="paint5_linear_150_403" x1="57.5305" y1="48.7455" x2="93.6022" y2="67.9365" gradientUnits="userSpaceOnUse">
<stop stop-color="#99D633"/>
<stop offset="0.5" stop-color="#33CC99"/>
<stop offset="1" stop-color="#273470"/>
</linearGradient>
<linearGradient id="paint6_linear_150_403" x1="52.5132" y1="61.104" x2="88.657" y2="80.3266" gradientUnits="userSpaceOnUse">
<stop stop-color="#99D633"/>
<stop offset="0.5" stop-color="#33CC99"/>
<stop offset="1" stop-color="#273470"/>
</linearGradient>
<linearGradient id="paint7_linear_150_403" x1="57.9987" y1="47.3322" x2="94.1571" y2="66.5682" gradientUnits="userSpaceOnUse">
<stop stop-color="#99D633"/>
<stop offset="0.5" stop-color="#33CC99"/>
<stop offset="1" stop-color="#273470"/>
</linearGradient>
<linearGradient id="paint8_linear_150_403" x1="46.6193" y1="77.4597" x2="82.7751" y2="96.6816" gradientUnits="userSpaceOnUse">
<stop stop-color="#99D633"/>
<stop offset="0.5" stop-color="#33CC99"/>
<stop offset="1" stop-color="#273470"/>
</linearGradient>
<linearGradient id="paint9_linear_150_403" x1="54.1513" y1="47.5119" x2="90.317" y2="66.7521" gradientUnits="userSpaceOnUse">
<stop stop-color="#99D633"/>
<stop offset="0.5" stop-color="#33CC99"/>
<stop offset="1" stop-color="#273470"/>
</linearGradient>
<linearGradient id="paint10_linear_150_403" x1="42.8178" y1="75.8803" x2="78.9039" y2="95.085" gradientUnits="userSpaceOnUse">
<stop stop-color="#99D633"/>
<stop offset="0.5" stop-color="#33CC99"/>
<stop offset="1" stop-color="#273470"/>
</linearGradient>
<linearGradient id="paint11_linear_150_403" x1="37.6323" y1="88.6936" x2="73.8697" y2="107.965" gradientUnits="userSpaceOnUse">
<stop stop-color="#99D633"/>
<stop offset="0.5" stop-color="#33CC99"/>
<stop offset="1" stop-color="#273470"/>
</linearGradient>
<linearGradient id="paint12_linear_150_403" x1="46.5428" y1="45.4577" x2="93.4513" y2="78.502" gradientUnits="userSpaceOnUse">
<stop stop-color="#99D633"/>
<stop offset="0.5" stop-color="#33CC99"/>
<stop offset="1" stop-color="#273470"/>
</linearGradient>
<linearGradient id="paint13_linear_150_403" x1="58.8023" y1="21.0906" x2="105.725" y2="54.1488" gradientUnits="userSpaceOnUse">
<stop stop-color="#99D633"/>
<stop offset="0.5" stop-color="#33CC99"/>
<stop offset="1" stop-color="#273470"/>
</linearGradient>
<linearGradient id="paint14_linear_150_403" x1="53.4489" y1="24.1652" x2="100.271" y2="57.1533" gradientUnits="userSpaceOnUse">
<stop stop-color="#99D633"/>
<stop offset="0.5" stop-color="#33CC99"/>
<stop offset="1" stop-color="#273470"/>
</linearGradient>
<linearGradient id="paint15_linear_150_403" x1="29.6136" y1="62.0487" x2="76.4336" y2="95.0213" gradientUnits="userSpaceOnUse">
<stop stop-color="#99D633"/>
<stop offset="0.5" stop-color="#33CC99"/>
<stop offset="1" stop-color="#273470"/>
</linearGradient>
<linearGradient id="paint16_linear_150_403" x1="35.8158" y1="50.3978" x2="82.5588" y2="83.3257" gradientUnits="userSpaceOnUse">
<stop stop-color="#99D633"/>
<stop offset="0.5" stop-color="#33CC99"/>
<stop offset="1" stop-color="#273470"/>
</linearGradient>
<linearGradient id="paint17_linear_150_403" x1="36.769" y1="48.4692" x2="83.6113" y2="81.4616" gradientUnits="userSpaceOnUse">
<stop stop-color="#99D633"/>
<stop offset="0.5" stop-color="#33CC99"/>
<stop offset="1" stop-color="#273470"/>
</linearGradient>
<linearGradient id="paint18_linear_150_403" x1="86.3655" y1="55.1589" x2="89.6955" y2="1.94738" gradientUnits="userSpaceOnUse">
<stop stop-color="#66CCFF"/>
<stop offset="0.5" stop-color="#6258A6"/>
<stop offset="1" stop-color="#273470"/>
</linearGradient>
<linearGradient id="paint19_linear_150_403" x1="70.6723" y1="54.1589" x2="73.9858" y2="0.9472" gradientUnits="userSpaceOnUse">
<stop stop-color="#66CCFF"/>
<stop offset="0.5" stop-color="#6258A6"/>
<stop offset="1" stop-color="#273470"/>
</linearGradient>
<linearGradient id="paint20_linear_150_403" x1="70.0308" y1="54.1411" x2="73.3605" y2="0.930366" gradientUnits="userSpaceOnUse">
<stop stop-color="#66CCFF"/>
<stop offset="0.5" stop-color="#6258A6"/>
<stop offset="1" stop-color="#273470"/>
</linearGradient>
<linearGradient id="paint21_linear_150_403" x1="54.0693" y1="53.1314" x2="57.3993" y2="-0.063458" gradientUnits="userSpaceOnUse">
<stop stop-color="#66CCFF"/>
<stop offset="0.5" stop-color="#6258A6"/>
<stop offset="1" stop-color="#273470"/>
</linearGradient>
<linearGradient id="paint22_linear_150_403" x1="55.0183" y1="53.2092" x2="58.348" y2="-0.00150894" gradientUnits="userSpaceOnUse">
<stop stop-color="#66CCFF"/>
<stop offset="0.5" stop-color="#6258A6"/>
<stop offset="1" stop-color="#273470"/>
</linearGradient>
<linearGradient id="paint23_linear_150_403" x1="40.3157" y1="52.2981" x2="43.6456" y2="-0.896689" gradientUnits="userSpaceOnUse">
<stop stop-color="#66CCFF"/>
<stop offset="0.5" stop-color="#6258A6"/>
<stop offset="1" stop-color="#273470"/>
</linearGradient>
<linearGradient id="paint24_linear_150_403" x1="39.3633" y1="52.2133" x2="42.6932" y2="-0.981233" gradientUnits="userSpaceOnUse">
<stop stop-color="#66CCFF"/>
<stop offset="0.5" stop-color="#6258A6"/>
<stop offset="1" stop-color="#273470"/>
</linearGradient>
<linearGradient id="paint25_linear_150_403" x1="38.4033" y1="52.1517" x2="41.7332" y2="-1.05978" gradientUnits="userSpaceOnUse">
<stop stop-color="#66CCFF"/>
<stop offset="0.5" stop-color="#6258A6"/>
<stop offset="1" stop-color="#273470"/>
</linearGradient>
<linearGradient id="paint26_linear_150_403" x1="24.6155" y1="51.3145" x2="27.9456" y2="-1.89619" gradientUnits="userSpaceOnUse">
<stop stop-color="#66CCFF"/>
<stop offset="0.5" stop-color="#6258A6"/>
<stop offset="1" stop-color="#273470"/>
</linearGradient>
<linearGradient id="paint27_linear_150_403" x1="20.1734" y1="51.0041" x2="23.4868" y2="-2.19038" gradientUnits="userSpaceOnUse">
<stop stop-color="#66CCFF"/>
<stop offset="0.5" stop-color="#6258A6"/>
<stop offset="1" stop-color="#273470"/>
</linearGradient>
<linearGradient id="paint28_linear_150_403" x1="71.07" y1="51.9194" x2="71.07" y2="-0.771803" gradientUnits="userSpaceOnUse">
<stop stop-color="#66CCFF"/>
<stop offset="0.5" stop-color="#6258A6"/>
<stop offset="1" stop-color="#273470"/>
</linearGradient>
<linearGradient id="paint29_linear_150_403" x1="55.7808" y1="51.9232" x2="55.7808" y2="-0.767978" gradientUnits="userSpaceOnUse">
<stop stop-color="#66CCFF"/>
<stop offset="0.5" stop-color="#6258A6"/>
<stop offset="1" stop-color="#273470"/>
</linearGradient>
<linearGradient id="paint30_linear_150_403" x1="55.7784" y1="51.9228" x2="55.7784" y2="-0.768369" gradientUnits="userSpaceOnUse">
<stop stop-color="#66CCFF"/>
<stop offset="0.5" stop-color="#6258A6"/>
<stop offset="1" stop-color="#273470"/>
</linearGradient>
<linearGradient id="paint31_linear_150_403" x1="55.7788" y1="51.9223" x2="55.7788" y2="-0.768947" gradientUnits="userSpaceOnUse">
<stop stop-color="#66CCFF"/>
<stop offset="0.5" stop-color="#6258A6"/>
<stop offset="1" stop-color="#273470"/>
</linearGradient>
<linearGradient id="paint32_linear_150_403" x1="40.4844" y1="51.9196" x2="40.4844" y2="-0.771527" gradientUnits="userSpaceOnUse">
<stop stop-color="#66CCFF"/>
<stop offset="0.5" stop-color="#6258A6"/>
<stop offset="1" stop-color="#273470"/>
</linearGradient>
<linearGradient id="paint33_linear_150_403" x1="40.4862" y1="51.9186" x2="40.4862" y2="-0.772605" gradientUnits="userSpaceOnUse">
<stop stop-color="#66CCFF"/>
<stop offset="0.5" stop-color="#6258A6"/>
<stop offset="1" stop-color="#273470"/>
</linearGradient>
<linearGradient id="paint34_linear_150_403" x1="25.192" y1="51.9228" x2="25.192" y2="-0.768198" gradientUnits="userSpaceOnUse">
<stop stop-color="#66CCFF"/>
<stop offset="0.5" stop-color="#6258A6"/>
<stop offset="1" stop-color="#273470"/>
</linearGradient>
<linearGradient id="paint35_linear_150_403" x1="5.50818" y1="51.9044" x2="5.50818" y2="-0.754269" gradientUnits="userSpaceOnUse">
<stop stop-color="#66CCFF"/>
<stop offset="0.5" stop-color="#6258A6"/>
<stop offset="1" stop-color="#273470"/>
</linearGradient>
<linearGradient id="paint36_linear_150_403" x1="71.6797" y1="79.0515" x2="17.6171" y2="108.348" gradientUnits="userSpaceOnUse">
<stop stop-color="#FDBD4D"/>
<stop offset="0.5" stop-color="#FF6633"/>
<stop offset="1" stop-color="#273470"/>
</linearGradient>
<linearGradient id="paint37_linear_150_403" x1="60.5316" y1="51.8312" x2="6.59647" y2="81.0588" gradientUnits="userSpaceOnUse">
<stop stop-color="#FDBD4D"/>
<stop offset="0.5" stop-color="#FF6633"/>
<stop offset="1" stop-color="#273470"/>
</linearGradient>
<linearGradient id="paint38_linear_150_403" x1="63.765" y1="69.2308" x2="9.83382" y2="98.4635" gradientUnits="userSpaceOnUse">
<stop stop-color="#FDBD4D"/>
<stop offset="0.5" stop-color="#FF6633"/>
<stop offset="1" stop-color="#273470"/>
</linearGradient>
<linearGradient id="paint39_linear_150_403" x1="51.4883" y1="39.3152" x2="-2.32261" y2="68.4895" gradientUnits="userSpaceOnUse">
<stop stop-color="#FDBD4D"/>
<stop offset="0.5" stop-color="#FF6633"/>
<stop offset="1" stop-color="#273470"/>
</linearGradient>
<linearGradient id="paint40_linear_150_403" x1="46.0132" y1="25.6746" x2="-7.89919" y2="54.8968" gradientUnits="userSpaceOnUse">
<stop stop-color="#FDBD4D"/>
<stop offset="0.5" stop-color="#FF6633"/>
<stop offset="1" stop-color="#273470"/>
</linearGradient>
<linearGradient id="paint41_linear_150_403" x1="53.6968" y1="54.5236" x2="-0.368384" y2="83.8351" gradientUnits="userSpaceOnUse">
<stop stop-color="#FDBD4D"/>
<stop offset="0.5" stop-color="#FF6633"/>
<stop offset="1" stop-color="#273470"/>
</linearGradient>
<linearGradient id="paint42_linear_150_403" x1="41.4517" y1="23.743" x2="-12.4911" y2="52.975" gradientUnits="userSpaceOnUse">
<stop stop-color="#FDBD4D"/>
<stop offset="0.5" stop-color="#FF6633"/>
<stop offset="1" stop-color="#273470"/>
</linearGradient>
<linearGradient id="paint43_linear_150_403" x1="40.668" y1="24.8936" x2="-13.3828" y2="54.1912" gradientUnits="userSpaceOnUse">
<stop stop-color="#FDBD4D"/>
<stop offset="0.5" stop-color="#FF6633"/>
<stop offset="1" stop-color="#273470"/>
</linearGradient>
<linearGradient id="paint44_linear_150_403" x1="54.9514" y1="73.847" x2="16.6039" y2="96.1635" gradientUnits="userSpaceOnUse">
<stop stop-color="#FDBD4D"/>
<stop offset="0.5" stop-color="#FF6633"/>
<stop offset="1" stop-color="#273470"/>
</linearGradient>
<linearGradient id="paint45_linear_150_403" x1="43.124" y1="46.6266" x2="4.6588" y2="69.0116" gradientUnits="userSpaceOnUse">
<stop stop-color="#FDBD4D"/>
<stop offset="0.5" stop-color="#FF6633"/>
<stop offset="1" stop-color="#273470"/>
</linearGradient>
<linearGradient id="paint46_linear_150_403" x1="55.7374" y1="75.561" x2="17.3158" y2="97.9207" gradientUnits="userSpaceOnUse">
<stop stop-color="#FDBD4D"/>
<stop offset="0.5" stop-color="#FF6633"/>
<stop offset="1" stop-color="#273470"/>
</linearGradient>
<linearGradient id="paint47_linear_150_403" x1="49.7846" y1="61.9676" x2="11.4368" y2="84.2838" gradientUnits="userSpaceOnUse">
<stop stop-color="#FDBD4D"/>
<stop offset="0.5" stop-color="#FF6633"/>
<stop offset="1" stop-color="#273470"/>
</linearGradient>
<linearGradient id="paint48_linear_150_403" x1="46.1949" y1="62.3313" x2="7.69421" y2="84.7238" gradientUnits="userSpaceOnUse">
<stop stop-color="#FDBD4D"/>
<stop offset="0.5" stop-color="#FF6633"/>
<stop offset="1" stop-color="#273470"/>
</linearGradient>
<linearGradient id="paint49_linear_150_403" x1="44.7245" y1="59.1084" x2="6.31567" y2="81.4606" gradientUnits="userSpaceOnUse">
<stop stop-color="#FDBD4D"/>
<stop offset="0.5" stop-color="#FF6633"/>
<stop offset="1" stop-color="#273470"/>
</linearGradient>
<linearGradient id="paint50_linear_150_403" x1="38.9723" y1="45.913" x2="0.563483" y2="68.2652" gradientUnits="userSpaceOnUse">
<stop stop-color="#FDBD4D"/>
<stop offset="0.5" stop-color="#FF6633"/>
<stop offset="1" stop-color="#273470"/>
</linearGradient>
<linearGradient id="paint51_linear_150_403" x1="34.9218" y1="45.2087" x2="-3.58152" y2="67.616" gradientUnits="userSpaceOnUse">
<stop stop-color="#FDBD4D"/>
<stop offset="0.5" stop-color="#FF6633"/>
<stop offset="1" stop-color="#273470"/>
</linearGradient>
<linearGradient id="paint52_linear_150_403" x1="22.312" y1="19.3065" x2="-16.1095" y2="41.6656" gradientUnits="userSpaceOnUse">
<stop stop-color="#FDBD4D"/>
<stop offset="0.5" stop-color="#FF6633"/>
<stop offset="1" stop-color="#273470"/>
</linearGradient>
<linearGradient id="paint53_linear_150_403" x1="34.2717" y1="46.4086" x2="-4.14954" y2="68.7675" gradientUnits="userSpaceOnUse">
<stop stop-color="#FDBD4D"/>
<stop offset="0.5" stop-color="#FF6633"/>
<stop offset="1" stop-color="#273470"/>
</linearGradient>
</defs>
</svg>
